<?xml version="1.0" encoding="UTF-8" standalone="no"?>
<!-- Generator: Adobe Illustrator 18.0.0, SVG Export Plug-In . SVG Version: 6.00 Build 0)  -->

<svg
   xmlns:dc="http://purl.org/dc/elements/1.1/"
   xmlns:cc="http://creativecommons.org/ns#"
   xmlns:rdf="http://www.w3.org/1999/02/22-rdf-syntax-ns#"
   xmlns:svg="http://www.w3.org/2000/svg"
   xmlns="http://www.w3.org/2000/svg"
   xmlns:sodipodi="http://sodipodi.sourceforge.net/DTD/sodipodi-0.dtd"
   xmlns:inkscape="http://www.inkscape.org/namespaces/inkscape"
   version="1.1"
   id="Layer_1"
   x="0px"
   y="0px"
   viewBox="0 0 988.12585 165.40178"
   enable-background="new 0 0 1117 603"
   xml:space="preserve"
   inkscape:version="0.91 r13725"
   sodipodi:docname="logo-footer-beta.svg"
   width="988.12585"
   height="165.40178"><metadata
     id="metadata47"><rdf:RDF><cc:Work
         rdf:about=""><dc:format>image/svg+xml</dc:format><dc:type
           rdf:resource="http://purl.org/dc/dcmitype/StillImage" /><dc:title></dc:title></cc:Work></rdf:RDF></metadata><defs
     id="defs45" /><sodipodi:namedview
     pagecolor="#ffffff"
     bordercolor="#666666"
     borderopacity="1"
     objecttolerance="10"
     gridtolerance="10"
     guidetolerance="10"
     inkscape:pageopacity="0"
     inkscape:pageshadow="2"
     inkscape:window-width="1052"
     inkscape:window-height="631"
     id="namedview43"
     showgrid="false"
     fit-margin-top="0"
     fit-margin-left="0"
     fit-margin-right="0"
     fit-margin-bottom="0"
     inkscape:zoom="0.25783348"
     inkscape:cx="508.68282"
     inkscape:cy="66.801781"
     inkscape:window-x="0"
     inkscape:window-y="0"
     inkscape:window-maximized="0"
     inkscape:current-layer="Layer_1" /><g
     id="g3"
     transform="translate(-57.574124,-202.9)"><g
       id="g5"><path
         d="m 152.9,252.2 -37.8,-35 c -11,-10.1 -22,-9.6 -28.7,-0.5 3.8,0 8.1,1.4 12.9,4.3 l 53.6,31.2 z"
         id="path7"
         inkscape:connector-curvature="0"
         style="fill:#ffffff" /><path
         d="M 69,285.3 58.5,334.6 C 55.1,349 61.4,358.5 71.9,360 70,356.6 69,351.9 69,346.6 c 0,0 0,-61.3 0,-61.3 z"
         id="path9"
         inkscape:connector-curvature="0"
         style="fill:#ffffff" /><path
         d="m 191.7,309.7 -53.2,31.1 48.9,-15.8 c 13.9,-4.3 19.2,-14.8 14.8,-24.9 -2.4,3.9 -5.8,7.2 -10.5,9.6 z"
         id="path11"
         inkscape:connector-curvature="0"
         style="fill:#ffffff" /><path
         d="M 191.7,274.7 152.9,252.2 99.3,220.6 C 94.5,217.7 90.2,216.8 86.4,216.3 76.2,215.8 69,224 69,237.9 l 0,47.4 0,46.5 0,14.8 c 0,5.3 1,10.1 2.9,13.4 4.8,9.1 15.3,11 26.8,4.3 l 24.9,-14.4 6.7,-3.8 7.7,-4.8 47.9,-27.8 c 6.2,-3.4 12,-6.7 15.8,-12.9 5.3,-9.1 1.9,-18.7 -10,-25.9 z m -34.1,24.9 c -44.1,25.9 -16.3,9.6 -39.3,23 -3.8,2.4 -8.1,2.9 -10.5,-0.5 -2.4,-3.4 -1.9,-2.4 -1.9,-52.7 0,-8.1 5.7,-11.5 12.9,-7.7 42.2,24.4 39.8,23 40.2,23.5 1,0.5 1.4,1 2.4,1.9 3,4.4 2,9.2 -3.8,12.5 z"
         id="path13"
         inkscape:connector-curvature="0"
         style="fill:#ffffff" /></g><g
       id="g15"><path
         d="m 257.8,349.9 0,-116.8 c 0,-18.2 29.2,-21.6 29.2,-21.6 l 0,138.4 -29.2,0 z"
         id="path17"
         inkscape:connector-curvature="0"
         style="fill:#ffffff" /><path
         d="m 394.3,284.8 0,65.1 -28.3,0 0,-68 c 0,-5.7 -3.4,-8.6 -9.6,-8.1 -7.7,0.5 -14.8,5.3 -17.7,7.2 l 0,69 -27.8,0 0,-82.9 c 0,-17.2 27.8,-20.6 27.8,-20.6 l 0,5.7 c 5.7,-2.4 12.5,-4.8 17.7,-4.8 8.6,-0.5 15.8,1 22.5,4.8 15.8,8.6 15.4,25.4 15.4,32.6 z"
         id="path19"
         inkscape:connector-curvature="0"
         style="fill:#ffffff" /><path
         d="m 488.6,342.3 c 0,0 -20.6,8.6 -33.5,8.6 -21.6,0 -33.5,-14.8 -33,-36.4 l 0,-41.2 -11,0 0,-25.9 11,0 0,-3.8 c 0,-17.7 28.3,-20.6 28.3,-20.6 l 0,24.4 27.3,0 0,25.9 -27.3,0 0,42.2 c 0,5.7 1,8.1 5.7,8.1 1.4,0 3.8,0 5.7,-0.5 12.5,-1.4 22.5,12.9 26.8,19.2 z"
         id="path21"
         inkscape:connector-curvature="0"
         style="fill:#ffffff" /><path
         d="m 527.9,251.7 c 0,0 6.7,-4.8 14.8,-4.8 9.1,0 20.1,4.8 20.1,4.8 l -6.2,23.9 c 0,0 -8.6,-2.9 -14.4,-2.9 -7.7,0 -12.5,5.7 -14.4,9.1 l 0,68 -28.3,0 0,-82.9 c 0,-17.7 28.3,-20.6 28.3,-20.6 l 0.1,5.4 0,0 z"
         id="path23"
         inkscape:connector-curvature="0"
         style="fill:#ffffff" /><path
         d="m 603.1,218.7 c 0,1 0,15.3 -15.8,15.3 -15.3,0 -15.3,-14.8 -15.3,-15.3 0,-2.4 0,-15.8 15.3,-15.8 15.8,0 15.8,13.4 15.8,15.8 z m -29.7,29.2 28.3,0 0,102.5 -28.3,0 0,-102.5 z"
         id="path25"
         inkscape:connector-curvature="0"
         style="fill:#ffffff" /><path
         d="m 677.8,251.3 0,-37.8 c 0,0 28.3,3.4 28.3,21.1 l 0,115.4 -16.8,0 c -3.4,0 -7.2,-2.4 -9.6,-4.8 0,0 -6.7,5.7 -19.2,5.7 -21.1,0 -43.6,-12.9 -43.6,-51.7 0,-39.3 22.5,-51.7 43.6,-51.7 6.8,-0.1 12.5,1.4 17.3,3.8 z m 0,65.6 0,-37.4 c -4.3,-3.8 -10.1,-5.7 -16.3,-5.7 -11.5,0 -15.8,11 -15.8,24.9 0,12.5 3.8,24.4 15.8,24.4 6.3,0 12.5,-3.3 16.3,-6.2 z"
         id="path27"
         inkscape:connector-curvature="0"
         style="fill:#ffffff" /><path
         d="m 815.8,295.8 c 0,7.7 -5.7,11.5 -13.4,11.5 l -51.3,0 c 1.4,9.1 7.7,18.2 17.7,18.2 13.9,0 19.2,-6.2 27.3,-6.2 7.2,0 20.6,8.6 20.6,8.6 -14.8,14.8 -32.6,23.5 -48.4,23.5 -11,0 -46.9,-4.8 -46.9,-51.7 0,-30.2 17.2,-52.2 47.9,-52.2 14.8,0 26.8,4.8 35,14.4 7.6,7.6 11.5,18.6 11.5,33.9 z m -29.7,-9.6 c -1,-6.2 -8.1,-12.9 -16.3,-12.9 -8.6,0 -15.8,6.7 -17.2,12.9 l 33.5,0 z"
         id="path29"
         inkscape:connector-curvature="0"
         style="fill:#ffffff" /><path
         d="m 931.2,298.7 c 0,30.2 -18.2,51.7 -49.8,51.7 -31.6,0 -49.8,-21.6 -49.8,-51.7 0,-30.2 18.2,-51.7 49.8,-51.7 31.6,0 49.8,21.5 49.8,51.7 z m -28.3,0 c 0,-14.8 -6.7,-23.5 -22,-23.5 -15.3,0 -22,8.6 -22,23.5 0,14.9 6.7,23.5 22,23.5 15.3,0 22,-8.7 22,-23.5 z"
         id="path31"
         inkscape:connector-curvature="0"
         style="fill:#ffffff" /></g></g><g
     id="g33"
     transform="translate(-57.574124,-202.9)"><path
       d="m 950.6,246.5 7,0 c 4.8,0 7.6,2.5 7.6,6.5 0,2.6 -1.3,4.5 -3.3,5.6 2.4,0.9 4.2,3 4.2,6.1 0,4.6 -3.3,7.3 -7.7,7.3 l -7.8,0 0,-25.5 z m 7.3,11 c 2.6,0 4.2,-1.7 4.2,-4.3 0,-2.5 -1.5,-4.1 -4.2,-4.1 l -4.4,0 0,8.4 4.4,0 z m 0,11.9 c 3,0 5.1,-1.5 5.1,-4.7 0,-3.4 -2.2,-4.7 -5.2,-4.7 l -4.3,0 0,9.4 4.4,0 z"
       id="path35"
       inkscape:connector-curvature="0"
       style="fill:#ffffff" /><path
       d="m 977.7,246.5 12.1,0 0,2.7 -9.2,0 0,8.5 8,0 0,2.7 -8,0 0,9 9.6,0 0,2.7 -12.5,0 0,-25.6 z"
       id="path37"
       inkscape:connector-curvature="0"
       style="fill:#ffffff" /><path
       d="m 1007,249.2 -6.9,0 0,-2.7 16.7,0 0,2.7 -6.9,0 0,22.8 -3,0 0,-22.8 z"
       id="path39"
       inkscape:connector-curvature="0"
       style="fill:#ffffff" /><path
       d="m 1029.6,263.7 -3.1,8.3 -3,0 9.6,-25.5 3,0 9.6,25.5 -3,0 -3.1,-8.3 -10,0 z m 5,-14 -4.1,11.4 8.2,0 -4.1,-11.4 z"
       id="path41"
       inkscape:connector-curvature="0"
       style="fill:#ffffff" /></g></svg>