<?xml version="1.0" encoding="utf-8"?>
<!-- Generator: Adobe Illustrator 18.0.0, SVG Export Plug-In . SVG Version: 6.00 Build 0)  -->
<!DOCTYPE svg PUBLIC "-//W3C//DTD SVG 1.1//EN" "http://www.w3.org/Graphics/SVG/1.1/DTD/svg11.dtd">
<svg version="1.1" id="Layer_1" xmlns="http://www.w3.org/2000/svg" xmlns:xlink="http://www.w3.org/1999/xlink" x="0px" y="0px"
	 viewBox="0 0 214 43" enable-background="new 0 0 214 43" xml:space="preserve">
<g>
	<g>
		<path fill="#FFFFFF" d="M33.6,14.8l-7.9-7.3c-2.3-2.1-4.6-2-6-0.1c0.8,0,1.7,0.3,2.7,0.9L33.6,14.8z"/>
		<path fill="#FFFFFF" d="M16.1,21.7L13.9,32c-0.7,3,0.6,5,2.8,5.3c-0.4-0.7-0.6-1.7-0.6-2.8V21.7z"/>
		<path fill="#FFFFFF" d="M41.7,26.8l-11.1,6.5l10.2-3.3c2.9-0.9,4-3.1,3.1-5.2C43.4,25.6,42.7,26.3,41.7,26.8z"/>
		<path fill="#FFFFFF" d="M41.7,19.5l-8.1-4.7L22.4,8.2c-1-0.6-1.9-0.8-2.7-0.9c-2.1-0.1-3.6,1.6-3.6,4.5v9.9v9.7v3.1
			c0,1.1,0.2,2.1,0.6,2.8c1,1.9,3.2,2.3,5.6,0.9l5.2-3l1.4-0.8l1.6-1l10-5.8c1.3-0.7,2.5-1.4,3.3-2.7C44.9,23,44.2,21,41.7,19.5z
			 M34.6,24.7c-9.2,5.4-3.4,2-8.2,4.8c-0.8,0.5-1.7,0.6-2.2-0.1c-0.5-0.7-0.4-0.5-0.4-11c0-1.7,1.2-2.4,2.7-1.6
			c8.8,5.1,8.3,4.8,8.4,4.9c0.2,0.1,0.3,0.2,0.5,0.4C36,23,35.8,24,34.6,24.7z"/>
	</g>
	<g>
		<path fill="#FFFFFF" d="M55.5,35.2V10.8c0-3.8,6.1-4.5,6.1-4.5v28.9H55.5z"/>
		<path fill="#FFFFFF" d="M84,21.6v13.6h-5.9V21c0-1.2-0.7-1.8-2-1.7c-1.6,0.1-3.1,1.1-3.7,1.5v14.4h-5.8V17.9
			c0-3.6,5.8-4.3,5.8-4.3v1.2c1.2-0.5,2.6-1,3.7-1c1.8-0.1,3.3,0.2,4.7,1C84.1,16.6,84,20.1,84,21.6z"/>
		<path fill="#FFFFFF" d="M103.7,33.6c0,0-4.3,1.8-7,1.8c-4.5,0-7-3.1-6.9-7.6v-8.6h-2.3v-5.4h2.3v-0.8c0-3.7,5.9-4.3,5.9-4.3v5.1
			h5.7v5.4h-5.7V28c0,1.2,0.2,1.7,1.2,1.7c0.3,0,0.8,0,1.2-0.1C100.7,29.3,102.8,32.3,103.7,33.6z"/>
		<path fill="#FFFFFF" d="M111.9,14.7c0,0,1.4-1,3.1-1c1.9,0,4.2,1,4.2,1l-1.3,5c0,0-1.8-0.6-3-0.6c-1.6,0-2.6,1.2-3,1.9v14.2h-5.9
			V17.9c0-3.7,5.9-4.3,5.9-4.3V14.7z"/>
		<path fill="#FFFFFF" d="M127.6,7.8c0,0.2,0,3.2-3.3,3.2c-3.2,0-3.2-3.1-3.2-3.2c0-0.5,0-3.3,3.2-3.3
			C127.6,4.5,127.6,7.3,127.6,7.8z M121.4,13.9h5.9v21.4h-5.9V13.9z"/>
		<path fill="#FFFFFF" d="M143.2,14.6V6.7c0,0,5.9,0.7,5.9,4.4v24.1h-3.5c-0.7,0-1.5-0.5-2-1c0,0-1.4,1.2-4,1.2
			c-4.4,0-9.1-2.7-9.1-10.8c0-8.2,4.7-10.8,9.1-10.8C141,13.8,142.2,14.1,143.2,14.6z M143.2,28.3v-7.8c-0.9-0.8-2.1-1.2-3.4-1.2
			c-2.4,0-3.3,2.3-3.3,5.2c0,2.6,0.8,5.1,3.3,5.1C141.1,29.6,142.4,28.9,143.2,28.3z"/>
		<path fill="#FFFFFF" d="M172,23.9c0,1.6-1.2,2.4-2.8,2.4h-10.7c0.3,1.9,1.6,3.8,3.7,3.8c2.9,0,4-1.3,5.7-1.3
			c1.5,0,4.3,1.8,4.3,1.8c-3.1,3.1-6.8,4.9-10.1,4.9c-2.3,0-9.8-1-9.8-10.8c0-6.3,3.6-10.9,10-10.9c3.1,0,5.6,1,7.3,3
			C171.2,18.4,172,20.7,172,23.9z M165.8,21.9c-0.2-1.3-1.7-2.7-3.4-2.7c-1.8,0-3.3,1.4-3.6,2.7H165.8z"/>
		<path fill="#FFFFFF" d="M196.1,24.5c0,6.3-3.8,10.8-10.4,10.8s-10.4-4.5-10.4-10.8c0-6.3,3.8-10.8,10.4-10.8
			S196.1,18.2,196.1,24.5z M190.2,24.5c0-3.1-1.4-4.9-4.6-4.9s-4.6,1.8-4.6,4.9c0,3.1,1.4,4.9,4.6,4.9S190.2,27.6,190.2,24.5z"/>
	</g>
</g>
</svg>
