<?xml version="1.0" encoding="UTF-8" standalone="no"?>
<svg
   xmlns:dc="http://purl.org/dc/elements/1.1/"
   xmlns:cc="http://creativecommons.org/ns#"
   xmlns:rdf="http://www.w3.org/1999/02/22-rdf-syntax-ns#"
   xmlns:svg="http://www.w3.org/2000/svg"
   xmlns="http://www.w3.org/2000/svg"
   viewBox="0 0 43.981201 47.645466"
   height="47.645466"
   width="43.981201"
   xml:space="preserve"
   id="svg2"
   version="1.1"><metadata
     id="metadata8"><rdf:RDF><cc:Work
         rdf:about=""><dc:format>image/svg+xml</dc:format><dc:type
           rdf:resource="http://purl.org/dc/dcmitype/StillImage" /></cc:Work></rdf:RDF></metadata><defs
     id="defs6"><clipPath
       id="clipPath18"
       clipPathUnits="userSpaceOnUse"><path
         id="path16"
         d="M 0,35.734 H 32.986 V 0 H 0 Z" /></clipPath></defs><g
     transform="matrix(1.3333333,0,0,-1.3333333,0,47.645467)"
     id="g10"><g
       id="g12"><g
         clip-path="url(#clipPath18)"
         id="g14"><g
           transform="translate(21.4652,26.1515)"
           id="g20"><path
             id="path22"
             style="fill:#ffffff;fill-opacity:1;fill-rule:nonzero;stroke:none"
             d="m 0,0 -8.55,7.916 c -2.43,2.25 -4.962,2.16 -6.446,0.104 0.873,-0.026 1.846,-0.324 2.871,-0.923 z" /></g><g
           transform="translate(2.5929,18.6524)"
           id="g24"><path
             id="path26"
             style="fill:#ffffff;fill-opacity:1;fill-rule:nonzero;stroke:none"
             d="m 0,0 -2.405,-11.083 c -0.701,-3.228 0.611,-5.398 3.066,-5.704 C 0.237,-16.004 0,-14.991 0,-13.776 Z" /></g><g
           transform="translate(30.2039,13.1378)"
           id="g28"><path
             id="path30"
             style="fill:#ffffff;fill-opacity:1;fill-rule:nonzero;stroke:none"
             d="m 0,0 -12.003,-7.025 10.987,3.532 C 2.138,-2.48 3.323,-0.192 2.279,2.152 1.826,1.364 1.067,0.625 0,0" /></g><g
           transform="translate(22.524,15.4097)"
           id="g32"><path
             id="path34"
             style="fill:#ffffff;fill-opacity:1;fill-rule:nonzero;stroke:none"
             d="m 0,0 c -9.959,-5.829 -3.668,-2.146 -8.86,-5.185 -0.842,-0.494 -1.823,-0.603 -2.42,0.151 -0.584,0.726 -0.445,0.582 -0.445,11.897 0,1.849 1.293,2.596 2.865,1.677 C 0.577,3.016 0.049,3.331 0.206,3.225 0.398,3.085 0.522,2.998 0.708,2.793 1.521,1.898 1.288,0.753 0,0 m 7.68,5.627 -8.739,5.115 -12.124,7.096 c -1.026,0.6 -1.999,0.898 -2.872,0.924 -2.285,0.069 -3.876,-1.729 -3.876,-4.873 V 3.243 -7.235 -10.534 c 0,-1.214 0.237,-2.227 0.661,-3.01 1.09,-2.018 3.413,-2.504 6.087,-0.939 l 5.605,3.281 1.501,0.879 1.754,1.026 10.752,6.293 c 1.362,0.797 2.713,1.464 3.53,2.884 1.123,1.95 0.365,4.199 -2.279,5.747" /></g></g></g></g></svg>