<?xml version="1.0" encoding="UTF-8" standalone="no"?>
<!-- Generator: Adobe Illustrator 18.0.0, SVG Export Plug-In . SVG Version: 6.00 Build 0)  -->

<svg
   xmlns:dc="http://purl.org/dc/elements/1.1/"
   xmlns:cc="http://creativecommons.org/ns#"
   xmlns:rdf="http://www.w3.org/1999/02/22-rdf-syntax-ns#"
   xmlns:svg="http://www.w3.org/2000/svg"
   xmlns="http://www.w3.org/2000/svg"
   xmlns:sodipodi="http://sodipodi.sourceforge.net/DTD/sodipodi-0.dtd"
   xmlns:inkscape="http://www.inkscape.org/namespaces/inkscape"
   version="1.1"
   id="Layer_1"
   x="0px"
   y="0px"
   viewBox="0 0 255.1 60.1"
   enable-background="new 0 0 255.1 60.1"
   xml:space="preserve"
   inkscape:version="0.91 r13725"
   sodipodi:docname="logo-plain.svg"><metadata
     id="metadata69"><rdf:RDF><cc:Work
         rdf:about=""><dc:format>image/svg+xml</dc:format><dc:type
           rdf:resource="http://purl.org/dc/dcmitype/StillImage" /><dc:title></dc:title></cc:Work></rdf:RDF></metadata><defs
     id="defs67" /><sodipodi:namedview
     pagecolor="#ffffff"
     bordercolor="#666666"
     borderopacity="1"
     objecttolerance="10"
     gridtolerance="10"
     guidetolerance="10"
     inkscape:pageopacity="0"
     inkscape:pageshadow="2"
     inkscape:window-width="1302"
     inkscape:window-height="732"
     id="namedview65"
     showgrid="false"
     inkscape:zoom="2.257938"
     inkscape:cx="92.055468"
     inkscape:cy="21.393249"
     inkscape:window-x="0"
     inkscape:window-y="0"
     inkscape:window-maximized="0"
     inkscape:current-layer="Layer_1" /><g
     id="g3"><g
       id="g5"><path
         fill="#4385F6"
         d="M49.2,56.5H23c-6.6,0-12-5.4-12-12V18.3c0-6.6,5.4-12,12-12h26.2c6.6,0,12,5.4,12,12v26.2    C61.2,51.1,55.8,56.5,49.2,56.5z"
         id="path7" /><g
         id="g9"><path
           fill="#FFFFFF"
           d="M42.8,22.4l-8.5-7.9c-2.4-2.2-5-2.2-6.4-0.1c0.9,0,1.8,0.3,2.9,0.9L42.8,22.4z"
           id="path11" /><path
           fill="#FFFFFF"
           d="M23.9,29.9L21.5,41c-0.7,3.2,0.6,5.4,3.1,5.7c-0.4-0.8-0.7-1.8-0.7-3V29.9z"
           id="path13" /><path
           fill="#FFFFFF"
           d="M51.5,35.4l-12,7l11-3.5c3.2-1,4.3-3.3,3.3-5.6C53.3,34.1,52.6,34.8,51.5,35.4z"
           id="path15" /><path
           fill="#FFFFFF"
           d="M51.5,27.5l-8.7-5.1l-12.1-7.1c-1-0.6-2-0.9-2.9-0.9c-2.3-0.1-3.9,1.7-3.9,4.9v10.6v10.5v3.3     c0,1.2,0.2,2.2,0.7,3c1.1,2,3.4,2.5,6.1,0.9l5.6-3.3l1.5-0.9l1.8-1l10.8-6.3c1.4-0.8,2.7-1.5,3.5-2.9     C54.9,31.3,54.1,29.1,51.5,27.5z M43.8,33.1c-10,5.8-3.7,2.1-8.9,5.2c-0.8,0.5-1.8,0.6-2.4-0.2c-0.6-0.7-0.4-0.6-0.4-11.9     c0-1.8,1.3-2.6,2.9-1.7c9.4,5.5,8.9,5.2,9.1,5.3c0.2,0.1,0.3,0.2,0.5,0.4C45.3,31.2,45.1,32.4,43.8,33.1z"
           id="path17" /></g></g><g
       id="g19"><path
         d="m 74.1,47.628993 0,-28.3 c 0,-4.5 7.1,-5.2 7.1,-5.2 l 0,33.5 -7.1,0 z"
         id="path21"
         inkscape:connector-curvature="0"
         style="fill:#4385f6" /><path
         d="m 107.2,31.828993 0,15.8 -6.8,0 0,-16.4 c 0,-1.4 -0.9,-2.1 -2.3,-2 -1.8,0.1 -3.6,1.2 -4.3,1.8 l 0,16.7 -6.8,0 0,-20.2 c 0,-4.2 6.7,-5 6.7,-5 l 0,1.4 c 1.4,-0.6 3,-1.1 4.3,-1.2 2.1,-0.1 3.9,0.3 5.4,1.1 3.9,2.3 3.8,6.3 3.8,8 z"
         id="path23"
         inkscape:connector-curvature="0"
         style="fill:#4385f6" /><path
         d="m 130,45.728993 c 0,0 -5,2.1 -8.1,2.1 -5.3,0 -8.1,-3.6 -8,-8.8 l 0,-10 -2.7,0 0,-6.2 2.7,0 0,-0.9 c 0,-4.3 6.8,-5 6.8,-5 l 0,5.9 6.6,0 0,6.2 -6.6,0 0,10.1 c 0,1.4 0.3,2 1.4,2 0.3,0 1,0 1.4,-0.1 3.1,-0.2 5.5,3.2 6.5,4.7 z"
         id="path25"
         inkscape:connector-curvature="0"
         style="fill:#4385f6" /><path
         d="m 139.5,23.828993 c 0,0 1.6,-1.1 3.6,-1.1 2.2,0 4.9,1.1 4.9,1.1 l -1.5,5.8 c 0,0 -2.1,-0.7 -3.5,-0.7 -1.8,0 -3,1.3 -3.5,2.3 l 0,16.5 -6.9,0 0,-20.2 c 0,-4.3 6.9,-4.9 6.9,-4.9 l 0,1.2 z"
         id="path27"
         inkscape:connector-curvature="0"
         style="fill:#4385f6" /><path
         d="m 157.7,15.828993 c 0,0.2 0,3.7 -3.8,3.7 -3.7,0 -3.7,-3.5 -3.7,-3.7 0,-0.6 0,-3.8 3.7,-3.8 3.8,0 3.8,3.2 3.8,3.8 z m -7.2,7.1 6.8,0 0,24.7 -6.8,0 0,-24.7 z"
         id="path29"
         inkscape:connector-curvature="0"
         style="fill:#4385f6" /><path
         d="m 175.8,23.728993 0,-9.1 c 0,0 6.8,0.8 6.8,5.1 l 0,28 -4,0 c -0.8,0 -1.8,-0.6 -2.3,-1.1 0,0 -1.6,1.3 -4.6,1.3 -5.1,0 -10.6,-3.1 -10.6,-12.5 0,-9.5 5.5,-12.5 10.6,-12.5 1.6,-0.2 2.9,0.2 4.1,0.8 z m 0,15.9 0,-9 c -1,-1 -2.5,-1.4 -3.9,-1.4 -2.8,0 -3.9,2.7 -3.9,6 0,3.1 0.9,5.9 3.9,5.9 1.5,0 3,-0.8 3.9,-1.5 z"
         id="path31"
         inkscape:connector-curvature="0"
         style="fill:#4385f6" /><path
         d="m 209.3,34.528993 c 0,1.9 -1.4,2.7 -3.3,2.7 l -12.3,0 c 0.3,2.2 1.9,4.4 4.3,4.4 3.4,0 4.7,-1.5 6.7,-1.5 1.7,0 5,2.1 5,2.1 -3.6,3.6 -7.8,5.6 -11.7,5.6 -2.7,0 -11.3,-1.1 -11.3,-12.5 0,-7.3 4.1,-12.6 11.5,-12.6 3.6,0 6.5,1.1 8.5,3.5 1.5,1.9 2.5,4.6 2.6,8.3 z m -7.3,-2.3 c -0.3,-1.5 -1.9,-3.2 -3.9,-3.2 -2.1,0 -3.9,1.6 -4.2,3.2 l 8.1,0 z"
         id="path33"
         inkscape:connector-curvature="0"
         style="fill:#4385f6" /><path
         d="m 237.1,35.228993 c 0,7.3 -4.4,12.5 -12.1,12.5 -7.7,0 -12.1,-5.3 -12.1,-12.5 0,-7.3 4.4,-12.5 12.1,-12.5 7.7,0 12.1,5.2 12.1,12.5 z m -6.8,0 c 0,-3.6 -1.6,-5.7 -5.3,-5.7 -3.7,0 -5.3,2.1 -5.3,5.7 0,3.5 1.6,5.7 5.3,5.7 3.7,0 5.3,-2.1 5.3,-5.7 z"
         id="path35"
         inkscape:connector-curvature="0"
         style="fill:#4385f6" /></g><g
       id="g37" /></g></svg>